<?xml version="1.0" encoding="UTF-8" standalone="no"?>
<!-- Created with Inkscape (http://www.inkscape.org/) -->

<svg
   version="1.1"
   id="svg1"
   width="1448"
   height="1086"
   viewBox="0 0 1448 1086"
   xmlns="http://www.w3.org/2000/svg"
   xmlns:svg="http://www.w3.org/2000/svg">
  <defs
     id="defs1" />
  <g
     id="g1">
    <g
       id="g2"
       transform="translate(483.33728,-243.23195)">
      <path
         id="path7"
         style="fill:#778893"
         d="m 621.60413,500.21242 -0.41016,0.37109 c 0.14564,-0.006 0.29186,-0.0119 0.4375,-0.0176 h 0.002 l 0.28711,-0.31836 c -0.10566,-0.0114 -0.21074,-0.0238 -0.3164,-0.0351 z M 1162.11,501.1089 c -1.2664,10e-4 -2.4968,0.0577 -3.3828,0.16797 -0.4438,0.0552 -0.6709,0.10869 -0.7012,0.15625 v 0.002 0.002 0.002 c -10e-5,7.4e-4 0,0.005 0,0.006 v 0.002 0.004 0.002 0.002 0.002 0.002 0.002 0.002 0.002 c 0.1647,0.12519 1.8001,0.21177 4.4648,0.20899 2.5368,-0.003 4.0361,-0.0854 4.168,-0.20118 v -0.002 -0.002 -0.002 -0.002 -0.002 -0.002 -0.008 -0.002 -0.002 -0.002 -0.002 c -0.046,-0.0526 -0.3511,-0.11418 -0.9414,-0.17578 -1.0357,-0.10809 -2.3386,-0.16143 -3.6055,-0.16016 z m -74.5977,17.35938 c -0.101,0.39878 -0.1679,2.00761 -0.1679,4.53125 0,2.81378 0.085,4.49613 0.205,4.625 v 0.002 0.002 0.002 c 7e-4,-2e-5 0.01,1.2e-4 0.01,0 v -0.002 -0.002 c 0.049,-0.0433 0.1047,-0.3291 0.1621,-0.87695 0.2157,-2.0625 0.2157,-5.4375 0,-7.5 -0.041,-0.39678 -0.082,-0.65057 -0.1191,-0.7793 -0.03,4.9e-4 -0.06,-0.002 -0.09,-0.002 z m -14.7129,1.53711 c -0.1078,0.0235 -0.2147,0.048 -0.3222,0.0723 l -0.01,4.17188 -0.014,10.49414 c 0.049,7.6e-4 0.098,8.5e-4 0.1465,0.002 l 0.1348,-10.20312 z m -140.31832,28.83203 c -0.002,3.4e-4 -0.002,0.001 -0.004,0.002 -0.14518,0.0327 -0.24609,0.82168 -0.24609,2.16016 0,0.14142 0.002,0.27735 0.004,0.40625 0.20928,0.0399 0.41766,0.0792 0.62695,0.11914 0.0446,-0.79552 -0.0131,-1.66044 -0.17383,-2.27539 -0.0718,-0.27493 -0.13875,-0.40843 -0.19922,-0.41211 h -0.002 c -10e-4,1.4e-4 -0.004,-3.4e-4 -0.006,0 z m 139.89062,13.0664 c -5e-4,0.194 0,0.3924 0,0.59571 h 0.01 c 0,3.86719 0.079,6.19111 0.1992,6.32812 0.045,-0.0517 0.098,-0.39102 0.1504,-1.04492 0.1162,-1.50447 0.1668,-3.65003 0.1484,-5.75391 -0.1688,-0.0418 -0.3391,-0.0832 -0.5078,-0.125 z m -332.50195,51.21485 c -0.725,-0.004 -1.48741,0.0542 -2.10937,0.17383 -1.24391,0.23919 -0.46173,0.44398 1.73828,0.45507 2.19994,0.0111 3.21781,-0.18525 2.26172,-0.43554 -0.47804,-0.12516 -1.16563,-0.1897 -1.89063,-0.19336 z" />
      <path
         style="fill:#dd6a44"
         d="m -236.2539,839.83704 c -1.65,-0.7264 -6.86113,-5.32126 -11.58029,-10.21084 -4.71916,-4.88958 -19.79179,-20.49541 -33.49473,-34.67961 -13.70293,-14.1842 -25.6738,-27.2342 -26.60192,-29 -2.74528,-5.22302 -3.1483,-10.07993 -1.3498,-16.26656 1.49539,-5.14395 3.33606,-7.4501 21.33167,-26.72622 10.83229,-11.60307 25.77007,-27.70839 33.19507,-35.78961 7.425,-8.08121 15.13627,-15.646 17.13615,-16.81063 4.53894,-2.64326 12.15789,-2.81287 16.50865,-0.36752 3.19964,1.79836 16.33343,16.00909 16.3474,17.68785 0.004,0.51582 -3.9403,5.01582 -8.76576,10 -36.2703,37.46335 -43.68818,45.49083 -45.33643,49.06215 -2.26604,4.90992 -2.427,13.26602 -0.35216,18.28212 0.92373,2.23321 7.61363,9.90755 16.75267,19.21788 8.36815,8.525 20.27048,20.67639 26.44962,27.00308 l 11.2348,11.50309 -7.09631,7.77751 c -3.90297,4.27764 -8.37498,8.43871 -9.93781,9.24691 -3.4935,1.8066 -10.42042,1.8403 -14.44082,0.07 z"
         id="path6" />
      <path
         style="fill:#42775f"
         d="m -303.99469,836.99508 c -2.6222,-0.97274 -12.60998,-10.02472 -33.26988,-30.15269 -38.90054,-37.89897 -41.03114,-40.21571 -42.96429,-46.71794 -1.93265,-6.50058 -1.25386,-11.78816 2.31599,-18.04084 2.49233,-4.36538 64.13592,-68.51734 70.55489,-73.42589 4.12076,-3.15112 10.6766,-3.91868 16.02476,-1.87619 5.41198,2.06685 18.26237,16.55419 16.87797,19.02796 -0.46366,0.82852 -8.5013,9.50549 -17.86143,19.28215 -29.28972,30.59315 -31.88158,33.38578 -33.83137,36.4521 -2.36387,3.71751 -4.55794,12.83192 -3.57046,14.8321 0.405,0.82035 1.57664,3.63604 2.60365,6.2571 1.49289,3.81007 7.03199,10.06127 27.62667,31.17835 l 25.75939,26.4128 -6.5624,7.43528 c -3.60932,4.08941 -7.72085,7.96311 -9.13674,8.60823 -4.17457,1.90206 -10.54307,2.22011 -14.56675,0.72748 z"
         id="path4" />
      <path
         id="path3"
         style="fill:#365964"
         d="m 1154.5201,501.49953 -0.014,2.27539 c 0.01,0.002 0.017,0.005 0.025,0.008 z m 14.0079,1 -0.037,6.55273 c 0.012,0.006 0.023,0.01 0.035,0.0156 z m -295.44145,11.84765 -2.33008,0.0547 -4.25781,0.0977 -0.14063,19.16211 c 0.21203,0.0202 0.42519,0.0413 0.64063,0.0625 v -18.60938 l 4.00781,-0.40625 2.93164,-0.29687 c -0.28313,-0.0219 -0.56632,-0.0442 -0.84961,-0.0645 z m -20.55469,1.94336 c -0.007,0.005 -0.0143,0.0104 -0.0215,0.0156 l -0.0957,14.80664 c 0.0666,0.0583 0.13383,0.11615 0.20118,0.17383 z m 301.84374,11.07618 -0.045,8.01367 c 0.1185,3.3e-4 0.237,-3.3e-4 0.3555,0 l -0.039,-7.91211 c -0.091,-0.0335 -0.1808,-0.0684 -0.2715,-0.10156 z m -288.16991,49.98632 c 0.007,0.8689 0.0145,1.68828 0.0234,2.45313 0.2562,0.0255 0.51332,0.0507 0.76953,0.0762 v -2.51562 c -0.26417,-0.005 -0.5288,-0.009 -0.79297,-0.0137 z m -13.33008,0.57032 c -0.1161,0.15164 -0.2328,0.30279 -0.34766,0.45507 0.11628,0.0131 0.2333,0.0263 0.34961,0.0391 z m 196.91799,22.19336 c 1.1476,0.13699 2.2957,0.2749 3.4433,0.4121 0.1915,-0.0225 0.3102,-0.0496 0.3477,-0.0762 v -0.002 -0.002 -0.002 -0.002 -0.002 -0.002 -0.002 -0.004 -0.002 -0.002 -0.002 -0.004 c -0.039,-0.0464 -0.3044,-0.0986 -0.8164,-0.15234 -0.8072,-0.0849 -1.8565,-0.13732 -2.9746,-0.15625 z" />
      <path
         style="fill:#0d2c51"
         d="m -164.30313,844.6664 c -3.96633,-1.2229 -8.71327,-5.6687 -39,-36.526 -19.63831,-20.0082 -35.2261,-36.7068 -36.20778,-38.788 -2.0336,-4.31115 -2.24129,-9.87002 -0.57638,-15.427 1.33027,-4.44003 4.27732,-7.73334 44.57938,-49.81709 14.01841,-14.63814 26.93668,-27.26255 29,-28.34033 4.67096,-2.43989 12.5047,-2.54082 17.3133,-0.22307 5.45728,2.63041 69.481698,70.43637 72.102528,76.36119 2.43283,5.49981 2.13179,14.8255 -0.65237,20.2095 -0.94629,1.8299 -16.82624,18.5756 -35.288798,37.2127 -30.982,31.2749 -33.95537,34.0006 -38.59258,35.3777 -5.96928,1.7727 -6.80781,1.7701 -12.6773,-0.04 z M 197.07758,833.109 c -7.53325,-2.1833 -12.33115,-7.0062 -26.74464,-26.8843 -7.96201,-10.9806 -15.60196,-20.4663 -17.51795,-21.75 -3.15534,-2.1141 -4.45804,-2.2766 -18.25,-2.2766 h -14.85212 v 19.5 19.5 h -7 -7 v -26 -26.00002 l 28.75,-0.022 c 25.87359,-0.0198 29.16009,-0.20821 32.84893,-1.88347 11.38393,-5.16996 12.61633,-21.95145 2.12228,-28.89883 l -4.07194,-2.6957 -26.67445,-0.5 c -21.70686,-0.40688 -27.01062,-0.77935 -28.47954,-2 -1.78955,-1.48709 -4.49528,-6.92361 -4.49528,-9.03219 0,-0.77871 9.0554,-1.00312 31.25,-0.77445 l 31.25,0.32197 5.55361,2.60045 c 11.94365,5.59256 16.94639,13.49298 16.94639,26.76201 0,11.88925 -6.28284,21.45073 -16.88198,25.69163 -2.26491,0.9063 -4.11802,1.8578 -4.11802,2.1145 0,0.2567 3.9704,5.9453 8.82312,12.6414 9.09199,12.5457 23.94273,34.4485 26.05307,38.4247 1.1074,2.0865 0.99178,2.2434 -1.59101,2.1598 -1.53185,-0.05 -4.19606,-0.4991 -5.92047,-0.9989 z M 26.212875,822.7182 c -27.9328872,-6.1492 -46.643787,-27.6925 -48.224067,-55.52406 -0.98105,-17.27798 2.86482,-30.14422 13.0014899,-43.49606 10.78568,-14.20671 28.7762271,-22.51606 48.6826771,-22.48522 16.39544,0.0254 31.31927,5.18268 41.5399,14.35507 l 5,4.4872 -5.18605,5.24562 -5.18604,5.24561 -3.81396,-3.44136 c -5.54696,-5.00507 -9.94049,-7.44415 -17.66929,-9.80918 -7.49105,-2.29227 -18.20037,-2.72763 -25.53,-1.03785 -11.60816,2.67616 -24.5898071,12.73728 -30.3408572,23.51497 -17.1894298,32.21366 5.6344901,70.42516 42.0653172,70.42516 10.9371,0 21.78514,-3.9918 30.45869,-11.208 l 4.79781,-3.9917 5.27199,4.986 c 5.92813,5.6066 5.94349,5.4831 -1.42436,11.4485 -13.02945,10.5493 -35.36345,15.2654 -53.44325,11.2853 z m 199.727475,-3.6366 c -5.41722,-2.6814 -9.74339,-7.9039 -11.13916,-13.447 -1.68615,-6.6964 -1.44878,-60.92095 0.29202,-66.70517 2.02497,-6.72848 5.2754,-10.66236 11.02016,-13.33732 5.01793,-2.33651 5.59139,-2.37465 35.8495,-2.38426 l 30.75,-0.01 v 6 6 h -27.03212 c -28.7611,0 -31.36131,0.36396 -35.46788,4.96458 -1.65172,1.85044 -2.05985,3.96412 -2.34371,12.13802 l -0.3437,9.8974 h 29.0937 29.09371 v 6.5 6.50005 h -29 -29 v 12.5496 c 0,9.4359 0.38865,13.3013 1.56642,15.5788 2.8116,5.437 5.46852,5.8716 35.90146,5.8716 h 27.53212 v 6 6 l -31.25,-8e-4 c -29.80138,-8e-4 -31.44806,-0.099 -35.52252,-2.1157 z m 90.77252,-39.9422 v -42.0586 l -2.97783,-3.70551 c -1.63781,-2.03803 -3.26906,-5.16164 -3.625,-6.94136 l -0.64717,-3.23585 h 28.81111 c 31.75392,0 36.72534,0.64552 47.81539,6.20866 16.37935,8.21642 24.78729,22.89726 24.79979,43.30216 0.01,16.2094 -5.56894,29.0103 -16.36113,37.5411 -12.0816,9.5499 -18.70514,10.9481 -51.86438,10.9481 h -25.95078 z m 50.36446,29.0867 c 11.90622,-1.9499 20.6991,-8.3471 25.84354,-18.8025 3.09268,-6.2854 3.29147,-7.3273 3.28318,-17.208 -0.008,-9.26579 -0.32332,-11.19059 -2.65136,-16.1729 -4.92814,-10.54687 -15.08582,-17.87635 -27.53004,-19.86487 -3.19538,-0.5106 -12.55978,-0.82743 -20.80978,-0.70406 l -15,0.22431 -0.26306,35.49472 c -0.14469,19.5222 -0.0463,36.0597 0.21861,36.75 0.59387,1.5476 27.90849,1.7573 36.90891,0.2833 z m 47.63554,12.4438 c 0,-0.4809 29.24693,-64.90011 38.90061,-85.68239 4.41259,-9.49933 7.03549,-11.78943 13.50269,-11.78943 7.6304,0 9.1699,2.00302 19.599,25.5 1.2206,2.75 4.3852,9.725 7.0324,15.5 4.6659,10.17902 18.7388,41.08422 23.5647,51.75002 l 2.3754,5.25 h -7.7771 -7.7771 l -13.9102,-31.25 c -19.0885,-42.88347 -22.308,-49.75002 -23.3261,-49.75002 -0.7934,0 -8.0956,15.63641 -30.23815,64.75002 l -7.32621,16.25 h -7.30997 c -4.02048,0 -7.30997,-0.2377 -7.30997,-0.5282 z m 132.4574,-1.3347 c -4.2989,-2.6216 -8.2049,-7.567 -9.4134,-11.9182 -0.6313,-2.2731 -1.035,-19.3673 -1.0384,-43.96892 l -0.006,-40.25 h 7 7 v 39.48422 39.4842 l 2.9163,3.2658 2.9162,3.2658 23.0838,0.3176 23.0837,0.3176 v 5.9324 5.9324 h -26.25 c -23.8045,0 -26.5335,-0.1766 -29.2926,-1.8592 z m 71.5426,-47.1371 v -49.00002 h 6.5 6.5 v 49.00002 49 h -6.5 -6.5 z m 28,48.4608 c 0,-0.3429 3.7762,-8.7993 8.3916,-18.7921 4.6153,-9.9928 12.2205,-26.4937 16.9005,-36.66872 17.3449,-37.71104 18.2577,-39.47385 21.1131,-40.77483 3.6983,-1.6851 9.0955,-1.53473 12.7503,0.35524 3.1057,1.60601 3.0818,1.56264 15.3435,27.91959 2.0469,4.4 6.3313,13.85 9.5208,21.00002 3.1894,7.15 9.2148,20.3782 13.3896,29.396 4.1748,9.0178 7.5906,16.7803 7.5906,17.25 0,0.4697 -3.3028,0.854 -7.3395,0.854 -7.0295,0 -7.3936,-0.1161 -8.6202,-2.75 -0.7044,-1.5125 -5.9879,-13.1 -11.741,-25.75 -5.7531,-12.65 -12.6347,-27.72502 -15.2924,-33.50002 -2.6577,-5.775 -5.6029,-12.43122 -6.5448,-14.79159 -0.9419,-2.36038 -2.1777,-4.13656 -2.7461,-3.94707 -1.1483,0.38276 -5.6229,9.79691 -24.5917,51.73868 l -12.8896,28.5 -7.6173,0.292 c -4.1896,0.1607 -7.6174,0.012 -7.6174,-0.3312 z"
         id="path2" />
    </g>
  </g>
</svg>
