<?xml version="1.0" encoding="UTF-8" standalone="no"?>
<!-- Created with Inkscape (http://www.inkscape.org/) -->

<svg
   version="1.1"
   id="svg1"
   width="512"
   height="512"
   viewBox="0 0 512 512"
   xmlns="http://www.w3.org/2000/svg"
   xmlns:svg="http://www.w3.org/2000/svg">
  <defs
     id="defs1" />
  <path
     style="fill:#d6613c;stroke-width:0.781701"
     d="m 256.37395,418.86896 c -3.61821,-1.04343 -8.45796,-3.56092 -10.93529,-5.68819 -1.19203,-1.02358 -8.93678,-10.08224 -17.21053,-20.13037 -33.11767,-40.21995 -85.64083,-103.17575 -94.95695,-113.81819 -3.19993,-3.6555 -5.4027,-7.10112 -7.0922,-11.0937 -3.97551,-9.39494 -4.89558,-14.07466 -4.47805,-22.7767 0.45389,-9.45986 2.36715,-16.38195 6.29188,-22.7638 2.708,-4.40339 18.19761,-23.56476 47.9426,-59.30719 18.58289,-22.32977 64.60444,-78.283339 65.82649,-80.032695 0.64935,-0.929532 3.16315,-3.191726 5.58622,-5.027082 10.68682,-8.094769 23.24025,-8.070424 33.83628,0.06562 3.06083,2.350238 25.07783,30.210587 25.07783,31.733557 0,0.61467 -5.17485,6.97181 -25.07582,30.8049 -38.59347,46.21896 -65.43288,78.99328 -66.78937,81.55833 -4.60991,8.71704 -7.03306,21.49503 -5.78724,30.5176 0.95081,6.88594 3.15804,14.72089 5.44875,19.34122 0.97235,1.9612 9.86932,12.83699 19.77104,24.16841 39.99934,45.77474 72.08141,83.53525 72.08141,84.83954 0,1.56813 -21.81778,28.82886 -25.40852,31.74725 -5.14771,4.18386 -9.78515,6.00932 -16.01986,6.306 -3.10042,0.14753 -6.74931,-0.0524 -8.10867,-0.44451 z"
     id="path103" />
  <path
     id="path101"
     style="fill:#387758;stroke-width:0.770073"
     d="m 356.08255,68.127636 c -0.72608,-0.0015 -1.47617,0.04258 -2.07617,0.132613 -1.20001,0.180074 -0.3791,0.33109 1.82422,0.335255 2.20335,0.0046 3.18489,-0.14319 2.18164,-0.327806 -0.50163,-0.09214 -1.20361,-0.138604 -1.92969,-0.140062 z m -197.72461,0.925307 c -4.40166,-0.0708 -7.9203,1.135373 -12.5918,4.037969 -4.67966,2.907664 -6.52754,4.825979 -15.4668,16.044594 -5.58408,7.007906 -15.26395,19.054194 -21.50976,26.769794 -6.24579,7.71561 -22.619461,28.04471 -36.386721,45.17607 -13.767259,17.13141 -29.491351,36.66598 -34.941411,43.41042 -10.71652,13.26165 -12.22512,15.57316 -15.20117,23.28016 -3.06847,7.9463 -4.09948,15.37317 -3.26562,23.50515 0.79369,7.74011 1.60372,10.83491 4.76562,18.20512 1.97462,4.60273 9.28669,13.78518 60.332034,75.75588 61.387298,74.52624 60.209088,73.22359 67.587888,74.72776 11.36092,2.31592 21.02365,-1.96995 28.63477,-12.70097 2.13528,-3.01057 5.54436,-7.68264 7.57617,-10.38251 5.99122,-7.96105 9.48632,-13.28056 9.2539,-14.08819 -0.11955,-0.41542 -7.57949,-9.96105 -16.57617,-21.212 -22.44112,-28.06404 -35.06481,-44.0236 -53.79492,-68.00775 -5.82097,-7.45385 -10.78827,-13.55178 -11.03906,-13.55178 -0.91658,1e-5 -4.74178,-8.16085 -7.07226,-15.08798 -2.11154,-6.27646 -2.42951,-8.15567 -2.71094,-16.03567 -0.28971,-8.11183 -0.15716,-9.5119 1.45898,-15.32342 2.81962,-10.13917 4.97854,-14.70918 10.0918,-21.36696 2.62694,-3.42045 18.56775,-24.24108 35.42382,-46.26677 16.85606,-22.02572 34.0308,-44.35005 38.16602,-49.61041 l 7.51953,-9.56447 -3.51367,-4.99606 c -1.93194,-2.7483 -5.96372,-8.331638 -8.96094,-12.40744 -2.99725,-4.0758 -5.92039,-8.279803 -6.49414,-9.34097 -0.57375,-1.061175 -3.4188,-3.66914 -6.32226,-5.796199 -4.30408,-3.153163 -6.18569,-4.019388 -10.19141,-4.692091 -1.73928,-0.292088 -3.30426,-0.457678 -4.77148,-0.481277 z m 126.96484,70.777697 c -0.13486,0.16858 -0.24843,0.31337 -0.33984,0.43211 0.14003,-0.10899 0.2803,-0.21842 0.41992,-0.32782 -0.0273,-0.0341 -0.0548,-0.0684 -0.0801,-0.10429 z m 141.54883,0.74949 c 0.30947,0.56741 0.64565,1.1259 1.01953,1.66882 0.4359,0.63298 0.92325,1.24608 1.48047,1.82976 0.10167,0.10649 0.20608,0.21137 0.3125,0.31589 0.45543,0.41591 0.9292,0.81825 1.41992,1.20692 -0.97543,-1.16469 -2.18255,-2.59649 -3.66797,-4.35386 z m -194.11133,67.0124 c -0.89679,1.16617 -1.44349,1.93905 -1.42383,2.0309 v 0.002 l 0.002,0.002 v 0.002 h 0.002 v 0.002 h 0.002 l 0.002,0.002 h 0.002 0.002 0.002 0.002 c 0.0957,-0.0164 0.60463,-0.54547 1.36719,-1.40658 -2.9e-4,-0.20105 0.0128,-0.41169 0.041,-0.63177 z m 253.83985,8.29944 c 0.545,0.6476 0.87595,1.02067 0.91015,1.02067 0.22023,0 0.1933,-0.19159 -0.4082,-0.99384 -0.16009,-0.009 -0.32802,-0.0167 -0.50195,-0.0269 z m 9.44726,28.16893 -0.002,0.002 h -0.002 l -0.002,0.002 h -0.002 c -0.0811,0.0661 -0.13797,0.9209 -0.14453,2.38106 -0.004,1.56949 0.0602,2.53451 0.15234,2.61649 l 0.002,0.002 h 0.002 l 0.002,0.002 h 0.002 0.002 0.002 0.002 0.002 v -0.002 c 0.0331,-0.0173 0.073,-0.14193 0.11132,-0.38294 0.15934,-0.99514 0.16208,-2.81552 0.01,-4.04541 -0.0444,-0.35551 -0.0875,-0.53999 -0.125,-0.5692 l -0.002,-0.002 -0.002,-0.002 h -0.002 -0.002 v -0.002 h -0.002 z m -48.33789,82.35073 c -0.2109,0.22816 -0.42124,0.45611 -0.63281,0.68392 -1.26974,1.35938 -2.50695,2.73544 -3.72461,4.12142 -0.2438,0.33268 -0.37528,0.53481 -0.37891,0.57961 v 0.002 0.002 0.002 l 0.002,0.002 v 0.002 h 0.002 0.002 c 0.12468,0 2.02926,-2.18133 4.73047,-5.3924 z m -158.83789,27.65785 c 3.22407,3.97499 5.86151,7.17521 6.72656,8.16385 -0.20723,-0.30363 -0.44752,-0.59276 -0.66015,-0.89401 0.0362,-0.15036 -2.4045,-3.0562 -3.50391,-4.42687 -0.61494,-0.70185 -1.19703,-1.41781 -1.87109,-2.09349 -0.23012,-0.25028 -0.46019,-0.49978 -0.69141,-0.74948 z m 110.66211,32.39019 c -0.28922,0.34662 -0.58651,0.70312 -0.88867,1.06834 -0.0611,0.17122 -0.0301,0.0847 -0.11719,0.34121 -0.14767,0.43487 -0.32957,0.82598 -0.53906,1.17414 0.0594,-0.0416 0.11838,-0.0836 0.17773,-0.12516 0.12986,-0.15751 0.26115,-0.3168 0.39258,-0.4768 0.46877,-0.57072 0.92277,-1.12613 1.35547,-1.65989 -0.12697,-0.10856 -0.2513,-0.21387 -0.38086,-0.32184 z m -78.42188,8.0506 2.31446,2.88022 c 0.016,-0.0308 0.0312,-0.0619 0.0488,-0.091 z m 35.63282,27.2004 c -0.48405,-0.004 -0.99296,0.0448 -1.40821,0.14157 -0.83052,0.19352 -0.30868,0.35903 1.16016,0.36803 1.46882,0.01 2.15006,-0.14914 1.51172,-0.35164 -0.31918,-0.10123 -0.77962,-0.155 -1.26367,-0.15796 z" />
  <path
     style="fill:#042851;stroke-width:0.740797"
     d="m 356.96913,415.0866 c -8.91982,-3.5226 -7.99419,-2.49277 -50.27034,-55.92806 -10.87485,-13.74534 -28.73621,-36.06199 -39.69188,-49.59257 -27.43603,-33.88425 -28.76784,-35.68502 -31.33473,-42.36827 -3.13571,-8.16429 -4.35428,-16.32244 -3.56587,-23.87307 1.3717,-13.13666 4.4556,-20.24507 14.08373,-32.46291 3.76262,-4.77465 11.4106,-14.65573 16.9955,-21.95794 5.5849,-7.3022 17.50296,-22.76572 26.48457,-34.36334 8.9816,-11.59762 18.22438,-23.54671 20.53952,-26.55349 30.59332,-39.733328 34.6755,-44.739713 38.51798,-47.238494 9.89409,-6.434147 20.67509,-6.370858 30.81853,0.180887 2.86934,1.853338 6.65601,6.149964 16.96272,19.247147 14.53275,18.46733 53.32468,67.55575 78.6994,99.58845 13.88723,17.53105 16.50793,21.22446 18.75715,26.43492 4.47469,10.36592 5.5697,21.62278 3.20206,32.9176 -2.4147,11.51943 -3.52016,13.26743 -27.21788,43.03939 -19.33009,24.28474 -40.26792,50.74101 -63.96333,80.82174 -20.40274,25.90073 -20.95188,26.52898 -25.64081,29.33416 -7.39575,4.42456 -16.46997,5.50131 -23.37632,2.77385 z"
     id="path100" />
</svg>
