<?xml version="1.0" encoding="UTF-8" standalone="no"?>
<!-- Created with Inkscape (http://www.inkscape.org/) -->

<svg
   version="1.1"
   id="svg1"
   width="479.66806"
   height="354.09311"
   viewBox="0 0 479.66806 354.09311"
   xmlns:xlink="http://www.w3.org/1999/xlink"
   xmlns="http://www.w3.org/2000/svg"
   xmlns:svg="http://www.w3.org/2000/svg">
  <defs
     id="defs1">
    <color-profile
       name="Don-RGB-4"
       xlink:href="file:///usr/share/color/icc/colord/DonRGB4.icc"
       id="color-profile2" />
  </defs>
  <rect width="479.66806" height="354.09311" x="0" y="0" fill="#0A2540"/>
  <path
     style="fill:#d6613c;stroke-width:0.746564"
     d="m 238.66836,339.5456 c -3.54486,-0.97143 -8.2865,-3.31521 -10.71361,-5.2957 -1.16786,-0.95294 -8.75561,-9.38653 -16.86164,-18.7413 -32.44631,-37.44464 -83.90473,-96.05629 -93.032,-105.96436 -3.13506,-3.40325 -5.29317,-6.61111 -6.94842,-10.32819 -3.89492,-8.74667 -4.79634,-13.10346 -4.38728,-21.20503 0.44469,-8.80711 2.31917,-15.25155 6.16434,-21.19303 2.6531,-4.09954 17.82871,-21.93871 46.97071,-55.2148 18.20618,-20.788945 63.29479,-72.881532 64.49207,-74.510177 0.63618,-0.865391 3.09902,-2.971487 5.47297,-4.680196 10.47018,-7.536204 22.76913,-7.513539 33.15036,0.0611 2.99878,2.188064 24.56945,28.125956 24.56945,29.543837 0,0.572255 -5.06994,6.490731 -24.56748,28.67926 -37.81111,43.029696 -64.10644,73.542476 -65.43543,75.930526 -4.51646,8.11555 -6.89048,20.0118 -5.66992,28.41179 0.93154,6.41079 3.09402,13.7051 5.33829,18.00661 0.95264,1.82587 9.66925,11.9512 19.37025,22.50071 39.18848,42.61613 70.62018,77.77104 70.62018,78.98534 0,1.45992 -21.37549,26.83957 -24.89344,29.55657 -5.04335,3.89517 -9.58678,5.59466 -15.69511,5.87087 -3.03756,0.13735 -6.61248,-0.0489 -7.94429,-0.41383 z"
     id="path103" />
  <path
     id="path101"
     style="fill:#387752;fill-opacity:1;stroke-width:0.726321"
     d="m 333.08683,16.470405 c -0.70559,-0.0014 -1.43452,0.03898 -2.01759,0.121398 -1.16614,0.164844 -0.3684,0.303089 1.77274,0.306902 2.14119,0.0042 3.09503,-0.131081 2.12008,-0.300083 -0.48747,-0.08435 -1.16963,-0.126883 -1.87523,-0.128217 z m -192.14546,0.847053 c -4.27746,-0.06481 -7.69681,1.039351 -12.23649,3.696472 -4.54762,2.661759 -6.34337,4.417838 -15.03038,14.687682 -5.42652,6.415236 -14.833252,17.442754 -20.902827,24.505836 -6.069553,7.06309 -21.981211,25.672931 -35.360004,41.355472 -13.378791,15.68257 -28.6592,33.56509 -33.955477,39.73915 -10.414133,12.14008 -11.880166,14.25611 -14.7722413,21.31131 -2.9818875,7.27428 -3.9838058,14.07305 -3.1734746,21.5173 0.7712946,7.08551 1.5584681,9.91858 4.6311499,16.66549 1.918902,4.21346 9.024648,12.61934 58.629657,69.34909 59.655147,68.22346 58.510177,67.03098 65.680777,68.40794 11.04034,2.12006 20.43042,-1.80334 27.82678,-11.62683 2.07504,-2.75597 5.38792,-7.0329 7.3624,-9.50444 5.82216,-7.28777 9.21865,-12.15742 8.99279,-12.89674 -0.11618,-0.38029 -7.36562,-9.11864 -16.10845,-19.41807 -21.8079,-25.69063 -34.0754,-40.30047 -52.277,-62.25624 -5.65672,-6.82346 -10.483858,-12.40569 -10.72757,-12.40569 -0.890718,1e-5 -4.607983,-7.47068 -6.872705,-13.81198 -2.051958,-5.74565 -2.360957,-7.46592 -2.634446,-14.67951 -0.281535,-7.42581 -0.152726,-8.70748 1.417813,-14.0275 2.74006,-9.28167 4.838062,-13.4652 9.807038,-19.55993 2.55281,-3.13116 18.04383,-22.19097 34.42428,-42.35393 16.38043,-20.162966 33.07056,-40.599297 37.0891,-45.414782 l 7.30735,-8.75559 -3.41453,-4.573537 c -1.87742,-2.515872 -5.79544,-7.627019 -8.70809,-11.358125 -2.91268,-3.731105 -5.75333,-7.57957 -6.31089,-8.550993 -0.55757,-0.97143 -3.32234,-3.358835 -6.14387,-5.306006 -4.18264,-2.886497 -6.01115,-3.679463 -9.90385,-4.295275 -1.6902,-0.267385 -3.21102,-0.418972 -4.63684,-0.440574 z m 123.3823,64.791932 c -0.13106,0.154323 -0.24142,0.286869 -0.33025,0.395566 0.13608,-0.09977 0.27239,-0.199949 0.40808,-0.300095 -0.0265,-0.03122 -0.0533,-0.06262 -0.0778,-0.09547 z m 137.55478,0.686105 c 0.30074,0.519423 0.62743,1.030681 0.99076,1.527685 0.4236,0.579449 0.89721,1.140699 1.4387,1.675016 0.0988,0.09748 0.20027,0.193494 0.30368,0.289175 0.44258,0.380736 0.90299,0.749048 1.37986,1.104848 -0.94791,-1.066191 -2.12097,-2.3769 -3.56448,-3.985648 z M 213.24431,144.14057 c -0.87148,1.06754 -1.40276,1.77506 -1.38364,1.85914 v 0.002 l 0.002,0.002 v 0.002 h 0.002 v 0.002 h 0.002 l 0.002,0.002 h 0.002 0.002 0.002 0.002 c 0.093,-0.0149 0.58756,-0.49934 1.3286,-1.28762 -2.8e-4,-0.18404 0.0125,-0.37687 0.0398,-0.57834 z m 246.67731,7.59754 c 0.52963,0.59285 0.85124,0.93434 0.88447,0.93434 0.21402,0 0.18785,-0.17537 -0.39668,-0.90977 -0.15558,-0.009 -0.31877,-0.0152 -0.48779,-0.0246 z m 9.18069,25.78666 -0.002,0.002 h -0.002 l -0.002,0.002 h -0.002 c -0.0788,0.0605 -0.13408,0.84302 -0.14045,2.17968 -0.004,1.43677 0.0585,2.32017 0.14803,2.39521 l 0.002,0.002 h 0.002 l 0.002,0.002 h 0.002 0.002 0.002 0.002 0.002 v -0.002 c 0.0321,-0.0158 0.0709,-0.12993 0.10818,-0.35056 0.15484,-0.91098 0.1575,-2.57741 0.01,-3.70328 -0.0431,-0.32545 -0.0851,-0.49432 -0.12146,-0.52107 l -0.002,-0.002 -0.002,-0.002 h -0.002 -0.002 v -0.002 h -0.002 z m -46.97394,75.38621 c -0.20496,0.20886 -0.40936,0.41754 -0.61496,0.62608 -1.23392,1.24441 -2.43621,2.50409 -3.61951,3.77286 -0.23692,0.30456 -0.3647,0.48959 -0.36822,0.53059 v 0.002 0.002 0.002 l 0.002,0.002 v 0.002 h 0.002 0.002 c 0.12116,0 1.972,-1.99685 4.59699,-4.93635 z m -154.35601,25.31879 c 3.13311,3.63882 5.69612,6.5684 6.53676,7.47343 -0.20137,-0.27796 -0.43488,-0.54265 -0.64151,-0.8184 0.0351,-0.13766 -2.33666,-2.79775 -3.40505,-4.05249 -0.59758,-0.6425 -1.16325,-1.29791 -1.81829,-1.91644 -0.22363,-0.22913 -0.4472,-0.45753 -0.67191,-0.6861 z m 107.53959,29.65091 c -0.28106,0.3173 -0.56997,0.64365 -0.8636,0.97799 -0.0593,0.15675 -0.0292,0.0775 -0.11388,0.31234 -0.14351,0.39809 -0.32027,0.75614 -0.52385,1.07486 0.0577,-0.0382 0.11504,-0.0765 0.17272,-0.11459 0.12619,-0.14419 0.25377,-0.29 0.3815,-0.43647 0.45554,-0.52247 0.89674,-1.03091 1.31722,-1.51952 -0.12339,-0.0994 -0.24421,-0.19577 -0.37011,-0.29461 z m -76.20907,7.36975 2.24916,2.63664 c 0.0156,-0.0283 0.0303,-0.0568 0.0474,-0.0833 z m 34.62738,24.90002 c -0.4704,-0.004 -0.96494,0.041 -1.36848,0.1296 -0.80709,0.17714 -0.29997,0.32865 1.12743,0.3369 1.42737,0.01 2.08939,-0.13652 1.46906,-0.32189 -0.31018,-0.0926 -0.75763,-0.1419 -1.22801,-0.14461 z" />
  <path
     style="fill:#ffffff;stroke-width:0.693895"
     d="m 336.37302,332.85564 c -8.51892,-3.23612 -7.63489,-2.29005 -48.01093,-51.37965 -10.38607,-12.62751 -27.44465,-33.12922 -37.90791,-45.55942 -26.20291,-31.12858 -27.47486,-32.78288 -29.92638,-38.92261 -2.99478,-7.50032 -4.15858,-14.99501 -3.4056,-21.93157 1.31005,-12.0683 4.25534,-18.59862 13.45073,-29.82283 3.59351,-4.38634 10.89775,-13.46383 16.23163,-20.17218 5.33389,-6.70835 16.71629,-20.91428 25.29422,-31.568708 8.57792,-10.65443 17.40527,-21.631748 19.61636,-24.393999 29.21829,-36.50197 33.117,-41.101207 36.78678,-43.396771 9.44939,-5.910883 19.74584,-5.852742 29.43337,0.166176 2.74038,1.702614 6.35686,5.649812 16.20034,17.681852 13.87956,16.965454 50.92798,62.0617 75.16222,91.48932 13.26307,16.10531 15.76598,19.49834 17.91411,24.28505 4.27357,9.52292 5.31936,19.8643 3.05814,30.24055 -2.30617,10.5826 -3.36194,12.18844 -25.99456,39.53915 -18.46129,22.30977 -38.45807,46.61445 -61.08848,74.24883 -19.48573,23.79433 -20.01019,24.3715 -24.48837,26.94853 -7.06336,4.06474 -15.72972,5.05393 -22.32567,2.54828 z"
     id="path100" />
</svg>
